<mxfile host="app.diagrams.net" modified="2023-04-27T21:57:03.957Z" agent="Mozilla/5.0 (X11; Ubuntu; Linux x86_64; rv:109.0) Gecko/20100101 Firefox/112.0" etag="JU8p1vyCQU4jv2R1DRqB" version="21.2.3" type="google">
  <diagram name="Страница 1" id="rsIHSl3QMNV-YjWnPp6s">
    <mxGraphModel grid="1" page="1" gridSize="10" guides="1" tooltips="1" connect="1" arrows="1" fold="1" pageScale="1" pageWidth="827" pageHeight="1169" math="0" shadow="0">
      <root>
        <mxCell id="0" />
        <mxCell id="1" parent="0" />
        <mxCell id="hgitbji2uTP9yxRPqwQ7-1" value="&lt;font style=&quot;font-size: 21px;&quot;&gt;«Software»&lt;br&gt;&lt;b&gt;Component&lt;/b&gt;&lt;/font&gt;" style="html=1;dropTarget=0;whiteSpace=wrap;" vertex="1" parent="1">
          <mxGeometry x="280" y="160" width="500" height="70" as="geometry" />
        </mxCell>
        <mxCell id="hgitbji2uTP9yxRPqwQ7-2" value="" style="shape=module;jettyWidth=8;jettyHeight=4;" vertex="1" parent="hgitbji2uTP9yxRPqwQ7-1">
          <mxGeometry x="1" width="20" height="20" relative="1" as="geometry">
            <mxPoint x="-27" y="7" as="offset" />
          </mxGeometry>
        </mxCell>
        <mxCell id="hgitbji2uTP9yxRPqwQ7-3" value="" style="html=1;whiteSpace=wrap;" vertex="1" parent="1">
          <mxGeometry x="280" y="230" width="500" height="310" as="geometry" />
        </mxCell>
        <mxCell id="hgitbji2uTP9yxRPqwQ7-4" value="«User interface»&lt;br&gt;&lt;b&gt;Component&lt;/b&gt;" style="html=1;dropTarget=0;whiteSpace=wrap;" vertex="1" parent="1">
          <mxGeometry x="300" y="260" width="146" height="50" as="geometry" />
        </mxCell>
        <mxCell id="hgitbji2uTP9yxRPqwQ7-5" value="" style="shape=module;jettyWidth=8;jettyHeight=4;" vertex="1" parent="hgitbji2uTP9yxRPqwQ7-4">
          <mxGeometry x="1" width="20" height="20" relative="1" as="geometry">
            <mxPoint x="-27" y="7" as="offset" />
          </mxGeometry>
        </mxCell>
        <mxCell id="hgitbji2uTP9yxRPqwQ7-6" value="«Data Storage»&lt;br&gt;&lt;b&gt;Component&lt;/b&gt;" style="html=1;dropTarget=0;whiteSpace=wrap;" vertex="1" parent="1">
          <mxGeometry x="580" y="260" width="146" height="50" as="geometry" />
        </mxCell>
        <mxCell id="hgitbji2uTP9yxRPqwQ7-7" value="" style="shape=module;jettyWidth=8;jettyHeight=4;" vertex="1" parent="hgitbji2uTP9yxRPqwQ7-6">
          <mxGeometry x="1" width="20" height="20" relative="1" as="geometry">
            <mxPoint x="-27" y="7" as="offset" />
          </mxGeometry>
        </mxCell>
        <mxCell id="hgitbji2uTP9yxRPqwQ7-8" value="«Application»&lt;br&gt;&lt;b&gt;Component&lt;/b&gt;" style="html=1;dropTarget=0;whiteSpace=wrap;" vertex="1" parent="1">
          <mxGeometry x="320" y="410" width="146" height="50" as="geometry" />
        </mxCell>
        <mxCell id="hgitbji2uTP9yxRPqwQ7-9" value="" style="shape=module;jettyWidth=8;jettyHeight=4;" vertex="1" parent="hgitbji2uTP9yxRPqwQ7-8">
          <mxGeometry x="1" width="20" height="20" relative="1" as="geometry">
            <mxPoint x="-27" y="7" as="offset" />
          </mxGeometry>
        </mxCell>
        <mxCell id="hgitbji2uTP9yxRPqwQ7-10" value="«Business logic»&lt;br&gt;&lt;b&gt;Component&lt;/b&gt;" style="html=1;dropTarget=0;whiteSpace=wrap;" vertex="1" parent="1">
          <mxGeometry x="590" y="410" width="146" height="50" as="geometry" />
        </mxCell>
        <mxCell id="hgitbji2uTP9yxRPqwQ7-11" value="" style="shape=module;jettyWidth=8;jettyHeight=4;" vertex="1" parent="hgitbji2uTP9yxRPqwQ7-10">
          <mxGeometry x="1" width="20" height="20" relative="1" as="geometry">
            <mxPoint x="-27" y="7" as="offset" />
          </mxGeometry>
        </mxCell>
        <mxCell id="hgitbji2uTP9yxRPqwQ7-12" value="" style="shape=providedRequiredInterface;html=1;verticalLabelPosition=bottom;sketch=0;rotation=-85;" vertex="1" parent="1">
          <mxGeometry x="363" y="340" width="20" height="20" as="geometry" />
        </mxCell>
        <mxCell id="hgitbji2uTP9yxRPqwQ7-13" value="" style="rounded=0;whiteSpace=wrap;html=1;" vertex="1" parent="1">
          <mxGeometry x="360" y="310" width="26" height="20" as="geometry" />
        </mxCell>
        <mxCell id="hgitbji2uTP9yxRPqwQ7-14" value="" style="endArrow=none;html=1;rounded=0;exitX=0.5;exitY=1;exitDx=0;exitDy=0;entryX=1;entryY=0.5;entryDx=0;entryDy=0;entryPerimeter=0;" edge="1" parent="1" source="hgitbji2uTP9yxRPqwQ7-13" target="hgitbji2uTP9yxRPqwQ7-12">
          <mxGeometry width="50" height="50" relative="1" as="geometry">
            <mxPoint x="370" y="350" as="sourcePoint" />
            <mxPoint x="420" y="300" as="targetPoint" />
          </mxGeometry>
        </mxCell>
        <mxCell id="hgitbji2uTP9yxRPqwQ7-15" value="" style="endArrow=none;html=1;rounded=0;entryX=0;entryY=0.5;entryDx=0;entryDy=0;entryPerimeter=0;exitX=0.5;exitY=0;exitDx=0;exitDy=0;" edge="1" parent="1" source="hgitbji2uTP9yxRPqwQ7-16" target="hgitbji2uTP9yxRPqwQ7-12">
          <mxGeometry width="50" height="50" relative="1" as="geometry">
            <mxPoint x="390" y="370" as="sourcePoint" />
            <mxPoint x="440" y="320" as="targetPoint" />
          </mxGeometry>
        </mxCell>
        <mxCell id="hgitbji2uTP9yxRPqwQ7-16" value="" style="rounded=0;whiteSpace=wrap;html=1;" vertex="1" parent="1">
          <mxGeometry x="360" y="390" width="26" height="20" as="geometry" />
        </mxCell>
        <mxCell id="hgitbji2uTP9yxRPqwQ7-17" value="" style="rounded=0;orthogonalLoop=1;jettySize=auto;html=1;endArrow=none;endFill=0;sketch=0;sourcePerimeterSpacing=0;targetPerimeterSpacing=0;exitX=1;exitY=0.5;exitDx=0;exitDy=0;" edge="1" parent="1" source="hgitbji2uTP9yxRPqwQ7-8" target="hgitbji2uTP9yxRPqwQ7-19">
          <mxGeometry relative="1" as="geometry">
            <mxPoint x="510" y="435" as="sourcePoint" />
          </mxGeometry>
        </mxCell>
        <mxCell id="hgitbji2uTP9yxRPqwQ7-18" value="" style="rounded=0;orthogonalLoop=1;jettySize=auto;html=1;endArrow=halfCircle;endFill=0;entryX=0.5;entryY=0.5;endSize=6;strokeWidth=1;sketch=0;exitX=0;exitY=0.5;exitDx=0;exitDy=0;" edge="1" parent="1" source="hgitbji2uTP9yxRPqwQ7-10" target="hgitbji2uTP9yxRPqwQ7-19">
          <mxGeometry relative="1" as="geometry">
            <mxPoint x="550" y="435" as="sourcePoint" />
          </mxGeometry>
        </mxCell>
        <mxCell id="hgitbji2uTP9yxRPqwQ7-19" value="" style="ellipse;whiteSpace=wrap;html=1;align=center;aspect=fixed;resizable=0;points=[];outlineConnect=0;sketch=0;" vertex="1" parent="1">
          <mxGeometry x="525" y="430" width="10" height="10" as="geometry" />
        </mxCell>
        <mxCell id="hgitbji2uTP9yxRPqwQ7-20" value="" style="rounded=0;orthogonalLoop=1;jettySize=auto;html=1;endArrow=none;endFill=0;sketch=0;sourcePerimeterSpacing=0;targetPerimeterSpacing=0;exitX=0.432;exitY=-0.04;exitDx=0;exitDy=0;exitPerimeter=0;" edge="1" parent="1" source="hgitbji2uTP9yxRPqwQ7-10" target="hgitbji2uTP9yxRPqwQ7-22">
          <mxGeometry relative="1" as="geometry">
            <mxPoint x="633" y="375" as="sourcePoint" />
          </mxGeometry>
        </mxCell>
        <mxCell id="hgitbji2uTP9yxRPqwQ7-21" value="" style="rounded=0;orthogonalLoop=1;jettySize=auto;html=1;endArrow=halfCircle;endFill=0;entryX=0.5;entryY=0.5;endSize=6;strokeWidth=1;sketch=0;exitX=0.5;exitY=1;exitDx=0;exitDy=0;" edge="1" parent="1" source="hgitbji2uTP9yxRPqwQ7-6" target="hgitbji2uTP9yxRPqwQ7-22">
          <mxGeometry relative="1" as="geometry">
            <mxPoint x="673" y="375" as="sourcePoint" />
          </mxGeometry>
        </mxCell>
        <mxCell id="hgitbji2uTP9yxRPqwQ7-22" value="" style="ellipse;whiteSpace=wrap;html=1;align=center;aspect=fixed;resizable=0;points=[];outlineConnect=0;sketch=0;" vertex="1" parent="1">
          <mxGeometry x="648" y="370" width="10" height="10" as="geometry" />
        </mxCell>
      </root>
    </mxGraphModel>
  </diagram>
</mxfile>
